<svg xmlns="http://www.w3.org/2000/svg" xmlns:xlink="http://www.w3.org/1999/xlink" width="1080" zoomAndPan="magnify" viewBox="0 0 810 809.999993" height="1080" preserveAspectRatio="xMidYMid meet" version="1.0"><defs><clipPath id="ef0a01a4c1"><path d="M 2.023438 0 L 808 0 L 808 810 L 2.023438 810 Z M 2.023438 0 " clip-rule="nonzero"/></clipPath><clipPath id="54b0070dbc"><path d="M 563 563 L 650 563 L 650 693.894531 L 563 693.894531 Z M 563 563 " clip-rule="nonzero"/></clipPath><clipPath id="5af881a037"><path d="M 604 532.644531 L 610 532.644531 L 610 556 L 604 556 Z M 604 532.644531 " clip-rule="nonzero"/></clipPath><clipPath id="e32e1a820c"><path d="M 539.367188 580 L 559 580 L 559 590 L 539.367188 590 Z M 539.367188 580 " clip-rule="nonzero"/></clipPath><clipPath id="e52ae1bf34"><path d="M 653 580 L 673.617188 580 L 673.617188 591 L 653 591 Z M 653 580 " clip-rule="nonzero"/></clipPath><clipPath id="349fc6cc47"><path d="M 655 616 L 673.617188 616 L 673.617188 626 L 655 626 Z M 655 616 " clip-rule="nonzero"/></clipPath><clipPath id="41a8534a36"><path d="M 539.367188 616 L 558 616 L 558 626 L 539.367188 626 Z M 539.367188 616 " clip-rule="nonzero"/></clipPath></defs><path fill="#efe9dd" d="M 728.675781 488.738281 C 725.683594 493.953125 721.839844 498.308594 717.308594 501.726562 C 712.953125 505.058594 713.378906 511.722656 718.078125 514.457031 L 795.75 559.0625 L 751.148438 636.734375 C 748.414062 641.519531 751.402344 647.414062 756.871094 648.097656 C 762.855469 648.867188 768.664062 650.832031 774.132812 654.167969 C 794.46875 666.472656 801.476562 692.960938 789.855469 713.636719 C 777.808594 735.34375 750.378906 742.859375 728.929688 730.558594 C 723.71875 727.566406 719.359375 723.636719 715.941406 719.191406 C 712.609375 714.835938 705.945312 715.261719 703.210938 719.960938 L 658.605469 797.632812 L 578.03125 751.320312 C 574.183594 751.0625 570.511719 753.796875 569.996094 757.984375 C 569.230469 763.96875 567.261719 769.777344 563.929688 775.246094 C 551.625 795.582031 525.136719 802.589844 504.460938 790.96875 C 482.753906 778.921875 475.234375 751.492188 487.539062 730.042969 C 490.53125 724.832031 494.375 720.472656 498.90625 717.054688 C 502.238281 714.492188 502.75 709.964844 500.613281 706.71875 L 420.035156 660.402344 L 464.640625 582.730469 C 467.375 577.945312 464.382812 572.050781 458.914062 571.367188 C 452.933594 570.597656 447.125 568.632812 441.65625 565.300781 C 421.316406 552.996094 414.3125 526.507812 425.933594 505.828125 C 437.980469 484.125 465.410156 476.605469 486.855469 488.910156 C 492.070312 491.902344 496.425781 495.746094 499.929688 500.273438 C 503.261719 504.632812 509.929688 504.207031 512.664062 499.503906 L 557.265625 421.832031 L 634.9375 466.4375 C 639.722656 469.171875 645.621094 466.179688 646.304688 460.710938 C 647.070312 454.730469 649.039062 448.921875 652.371094 443.453125 C 664.675781 423.113281 691.164062 416.109375 711.839844 427.730469 C 733.546875 439.777344 741.066406 467.207031 728.761719 488.652344 Z M 728.675781 488.738281 " fill-opacity="1" fill-rule="nonzero"/><path fill="#4a5568" d="M 264.949219 385.175781 C 265.121094 378.765625 263.921875 372.699219 261.617188 367.148438 C 259.566406 362.105469 263.152344 356.550781 268.621094 356.550781 L 358.171875 356.550781 C 358.171875 356.550781 358.171875 446.101562 358.171875 446.101562 C 358.171875 451.570312 352.617188 455.242188 347.578125 453.105469 C 342.363281 450.972656 336.640625 449.773438 330.65625 449.773438 C 305.964844 449.773438 285.882812 470.027344 286.308594 494.804688 C 286.652344 518.558594 305.878906 538.042969 329.632812 538.554688 C 336.042969 538.726562 342.109375 537.53125 347.664062 535.222656 C 352.703125 533.171875 358.257812 536.761719 358.257812 542.230469 L 358.257812 631.777344 C 358.257812 631.777344 265.289062 631.777344 265.289062 631.777344 C 261.871094 633.488281 260.078125 637.675781 261.703125 641.605469 C 264.007812 647.160156 265.203125 653.226562 265.035156 659.636719 C 264.4375 683.390625 245.039062 702.617188 221.285156 702.957031 C 196.503906 703.300781 176.253906 683.304688 176.253906 658.609375 C 176.253906 652.628906 177.449219 646.902344 179.585938 641.691406 C 181.210938 637.761719 179.414062 633.574219 175.996094 631.863281 L 83.03125 631.863281 C 83.03125 631.863281 83.03125 538.898438 83.03125 538.898438 C 81.320312 535.480469 77.132812 533.683594 73.203125 535.308594 C 67.648438 537.617188 61.582031 538.8125 55.171875 538.640625 C 31.417969 538.042969 12.195312 518.644531 11.851562 494.890625 C 11.511719 470.113281 31.503906 449.859375 56.199219 449.859375 C 62.179688 449.859375 67.90625 451.054688 73.117188 453.191406 C 77.046875 454.816406 81.234375 453.023438 82.945312 449.605469 L 82.945312 356.636719 C 82.945312 356.636719 172.492188 356.636719 172.492188 356.636719 C 177.960938 356.636719 181.636719 362.191406 179.5 367.230469 C 177.363281 372.445312 176.167969 378.167969 176.167969 384.152344 C 176.167969 408.84375 196.417969 428.925781 221.199219 428.582031 C 244.953125 428.242188 264.4375 409.015625 264.949219 385.261719 Z M 264.949219 385.175781 " fill-opacity="1" fill-rule="nonzero"/><path fill="#3f7a52" d="M 540.175781 54.492188 C 540.175781 60.472656 538.980469 66.199219 536.84375 71.410156 C 535.21875 75.339844 537.015625 79.527344 540.433594 81.238281 L 633.398438 81.238281 C 633.398438 81.238281 633.398438 174.203125 633.398438 174.203125 C 635.109375 177.621094 639.296875 179.417969 643.226562 177.792969 C 648.78125 175.488281 654.847656 174.289062 661.257812 174.460938 C 685.011719 175.058594 704.238281 194.457031 704.578125 218.210938 C 704.921875 242.992188 684.925781 263.242188 660.230469 263.242188 C 654.25 263.242188 648.523438 262.046875 643.3125 259.910156 C 639.382812 258.285156 635.195312 260.082031 633.484375 263.5 L 633.484375 356.464844 C 633.484375 356.464844 543.9375 356.464844 543.9375 356.464844 C 538.46875 356.464844 534.792969 350.910156 536.929688 345.871094 C 539.066406 340.65625 540.261719 334.933594 540.261719 328.953125 C 540.261719 304.257812 520.011719 284.261719 495.230469 284.605469 C 471.476562 284.945312 451.992188 304.171875 451.480469 327.925781 C 451.308594 334.335938 452.507812 340.402344 454.8125 345.957031 C 456.863281 350.996094 453.277344 356.550781 447.808594 356.550781 L 358.257812 356.550781 C 358.257812 356.550781 358.257812 81.324219 358.257812 81.324219 L 451.226562 81.324219 C 454.644531 79.613281 456.4375 75.425781 454.8125 71.496094 C 452.507812 65.941406 451.308594 59.875 451.480469 53.46875 C 452.078125 29.710938 471.476562 10.488281 495.230469 10.144531 C 520.011719 9.804688 540.261719 29.796875 540.261719 54.492188 Z M 540.175781 54.492188 " fill-opacity="1" fill-rule="nonzero"/><path fill="#d4a53e" d="M 264.949219 53.636719 C 264.949219 59.621094 263.753906 65.34375 261.617188 70.558594 C 259.566406 75.597656 263.152344 81.152344 268.621094 81.152344 L 358.171875 81.152344 C 358.171875 81.152344 358.171875 174.121094 358.171875 174.121094 C 359.882812 177.539062 364.066406 179.332031 368 177.707031 C 373.554688 175.402344 379.621094 174.203125 386.027344 174.375 C 409.78125 174.972656 429.007812 194.371094 429.351562 218.125 C 429.691406 242.90625 409.699219 263.15625 385.003906 263.15625 C 379.023438 263.15625 373.296875 261.960938 368.085938 259.824219 C 364.152344 258.199219 359.964844 259.996094 358.257812 263.414062 L 358.257812 356.378906 C 358.257812 356.378906 265.289062 356.378906 265.289062 356.378906 C 261.871094 358.089844 260.078125 362.277344 261.703125 366.207031 C 264.007812 371.761719 265.203125 377.828125 265.035156 384.234375 C 264.4375 407.992188 245.039062 427.214844 221.285156 427.558594 C 196.503906 427.898438 176.253906 407.90625 176.253906 383.125 C 176.253906 377.144531 177.449219 371.417969 179.585938 366.207031 C 181.210938 362.277344 179.414062 358.089844 175.996094 356.378906 L 83.03125 356.378906 C 83.03125 356.378906 83.03125 266.832031 83.03125 266.832031 C 83.03125 261.363281 77.476562 257.6875 72.433594 259.824219 C 66.878906 262.132812 60.8125 263.328125 54.40625 263.15625 C 30.648438 262.558594 11.425781 243.160156 11.082031 219.40625 C 10.742188 194.628906 30.734375 174.375 55.429688 174.375 C 61.410156 174.375 67.136719 175.570312 72.347656 177.707031 C 77.390625 179.757812 82.945312 176.171875 82.945312 170.703125 L 82.945312 81.152344 C 82.945312 81.152344 172.492188 81.152344 172.492188 81.152344 C 177.960938 81.152344 181.636719 75.597656 179.5 70.558594 C 177.195312 65.003906 175.996094 58.9375 176.167969 52.527344 C 176.765625 28.773438 196.164062 9.546875 219.917969 9.203125 C 244.699219 8.863281 264.949219 28.859375 264.949219 53.636719 Z M 264.949219 53.636719 " fill-opacity="1" fill-rule="nonzero"/><g clip-path="url(#ef0a01a4c1)"><path fill="#ffffff" d="M 17.40625 181.382812 C 27.488281 171.128906 40.988281 165.488281 55.34375 165.488281 C 61.753906 165.488281 67.992188 166.601562 73.972656 168.820312 L 73.972656 72.265625 C 73.972656 72.265625 170.527344 72.265625 170.527344 72.265625 C 168.136719 65.941406 167.023438 59.191406 167.195312 52.355469 C 167.539062 38.511719 173.175781 25.527344 183.003906 15.785156 C 192.914062 6.042969 205.988281 0.488281 219.832031 0.320312 C 234.273438 0.148438 247.773438 5.617188 258.027344 15.699219 C 268.28125 25.78125 273.921875 39.28125 273.921875 53.722656 C 273.921875 60.132812 272.808594 66.371094 270.589844 72.351562 L 367.144531 72.351562 C 367.144531 72.351562 367.144531 168.652344 367.144531 168.652344 C 373.210938 166.515625 379.703125 165.488281 386.285156 165.574219 C 400.128906 165.917969 413.113281 171.554688 422.855469 181.382812 C 432.683594 191.292969 438.152344 204.28125 438.324219 218.125 C 438.492188 232.480469 433.109375 246.066406 422.941406 256.320312 C 412.859375 266.574219 399.359375 272.214844 384.917969 272.214844 C 378.765625 272.214844 372.785156 271.1875 367.144531 269.136719 L 367.144531 365.4375 C 367.144531 365.4375 270.84375 365.4375 270.84375 365.4375 C 272.980469 371.503906 274.007812 378 273.921875 384.578125 C 273.578125 398.421875 267.9375 411.410156 258.113281 421.148438 C 248.199219 430.976562 235.210938 436.445312 221.371094 436.617188 C 207.015625 436.785156 193.429688 431.316406 183.175781 421.234375 C 172.921875 411.152344 167.28125 397.652344 167.28125 383.210938 C 167.28125 377.058594 168.308594 371.078125 170.359375 365.4375 L 74.058594 365.4375 C 74.058594 365.4375 74.058594 268.882812 74.058594 268.882812 C 67.648438 271.273438 60.984375 272.382812 54.148438 272.214844 C 40.304688 271.871094 27.316406 266.234375 17.578125 256.40625 C 7.75 246.492188 2.195312 233.421875 2.023438 219.664062 C 2.023438 219.40625 2.023438 219.152344 2.023438 218.894531 C 2.023438 204.796875 7.492188 191.464844 17.40625 181.46875 Z M 178.046875 347.492188 L 179.925781 348.433594 C 187.617188 352.363281 191.121094 361.679688 187.789062 369.710938 C 185.996094 373.980469 185.140625 378.511719 185.140625 383.210938 C 185.140625 392.78125 188.898438 401.753906 195.734375 408.417969 C 202.570312 415.167969 211.542969 418.757812 221.113281 418.585938 C 239.914062 418.328125 255.632812 402.777344 256.0625 384.066406 C 256.148438 379.023438 255.292969 374.238281 253.414062 369.625 C 250.082031 361.59375 253.582031 352.277344 261.273438 348.347656 L 263.152344 347.40625 L 349.285156 347.40625 C 349.285156 347.40625 349.285156 261.277344 349.285156 261.277344 L 350.226562 259.398438 C 354.070312 251.621094 363.46875 248.203125 371.503906 251.535156 C 375.773438 253.328125 380.386719 254.183594 385.003906 254.183594 C 394.574219 254.183594 403.546875 250.425781 410.210938 243.589844 C 416.960938 236.753906 420.550781 227.78125 420.378906 218.210938 C 420.121094 199.414062 404.570312 183.691406 385.773438 183.261719 C 380.730469 183.175781 375.945312 184.03125 371.417969 185.910156 C 363.382812 189.242188 354.070312 185.742188 350.140625 178.050781 L 349.199219 176.171875 L 349.199219 90.039062 C 349.199219 90.039062 268.621094 90.039062 268.621094 90.039062 C 263.070312 90.039062 257.941406 87.304688 254.867188 82.691406 C 251.789062 78.074219 251.191406 72.179688 253.328125 67.054688 C 255.121094 62.78125 255.976562 58.253906 255.976562 53.550781 C 255.976562 43.980469 252.214844 35.011719 245.378906 28.34375 C 238.546875 21.59375 229.574219 18.007812 220.003906 18.175781 C 201.203125 18.433594 185.480469 33.984375 185.054688 52.699219 C 184.96875 57.738281 185.824219 62.523438 187.703125 67.054688 C 189.839844 72.179688 189.242188 78.074219 186.164062 82.691406 C 183.089844 87.304688 177.960938 90.039062 172.410156 90.039062 L 91.832031 90.039062 C 91.832031 90.039062 91.832031 170.617188 91.832031 170.617188 C 91.832031 176.171875 89.097656 181.296875 84.480469 184.375 C 79.867188 187.449219 73.972656 188.046875 68.84375 185.910156 C 64.574219 184.117188 59.957031 183.261719 55.34375 183.261719 C 45.773438 183.261719 36.800781 187.023438 30.136719 193.859375 C 23.386719 200.695312 19.796875 209.664062 19.96875 219.234375 C 20.226562 238.035156 35.777344 253.757812 54.574219 254.183594 C 59.53125 254.269531 64.402344 253.414062 68.929688 251.535156 C 74.058594 249.398438 79.953125 249.996094 84.566406 253.074219 C 89.183594 256.148438 91.917969 261.277344 91.917969 266.832031 L 91.917969 347.40625 C 91.917969 347.40625 178.046875 347.40625 178.046875 347.40625 Z M 445.5 72.265625 C 443.363281 66.199219 442.339844 59.703125 442.425781 53.125 C 442.765625 39.28125 448.40625 26.292969 458.230469 16.554688 C 468.144531 6.726562 481.132812 1.257812 494.972656 1.085938 C 509.328125 0.917969 522.914062 6.300781 533.167969 16.46875 C 543.421875 26.550781 549.0625 40.050781 549.0625 54.492188 C 549.0625 60.644531 548.039062 66.625 545.988281 72.265625 L 642.285156 72.265625 C 642.285156 72.265625 642.285156 168.566406 642.285156 168.566406 C 648.351562 166.429688 654.847656 165.402344 661.425781 165.488281 C 675.269531 165.832031 688.257812 171.46875 698 181.296875 C 707.824219 191.210938 713.292969 204.199219 713.464844 218.039062 C 713.636719 232.394531 708.253906 245.980469 698.085938 256.234375 C 688 266.488281 674.5 272.128906 660.058594 272.128906 C 645.617188 272.128906 647.925781 271.101562 642.285156 269.050781 L 642.285156 365.351562 C 642.285156 365.351562 543.765625 365.351562 543.765625 365.351562 C 538.210938 365.351562 533.085938 362.617188 530.007812 358.003906 C 526.933594 353.390625 526.332031 347.492188 528.46875 342.367188 C 530.265625 338.09375 531.117188 333.566406 531.117188 328.867188 C 531.117188 319.296875 527.359375 310.324219 520.523438 303.660156 C 513.6875 296.910156 504.714844 293.320312 495.144531 293.492188 C 476.347656 293.746094 460.625 309.296875 460.195312 328.011719 C 460.113281 333.054688 460.964844 337.839844 462.847656 342.453125 C 464.980469 347.664062 464.382812 353.476562 461.308594 358.089844 C 458.230469 362.703125 453.105469 365.4375 447.550781 365.4375 L 349.027344 365.4375 C 349.027344 365.4375 349.027344 72.265625 349.027344 72.265625 Z M 445.839844 347.492188 C 443.449219 341.171875 442.339844 334.421875 442.507812 327.585938 C 442.851562 313.742188 448.492188 300.753906 458.316406 291.011719 C 468.230469 281.1875 481.21875 275.71875 495.058594 275.546875 C 509.414062 275.375 523 280.84375 533.253906 290.925781 C 543.507812 301.011719 549.148438 314.511719 549.148438 328.867188 C 549.148438 335.273438 548.039062 341.597656 545.816406 347.492188 L 624.511719 347.492188 C 624.511719 347.492188 624.511719 261.363281 624.511719 261.363281 L 625.453125 259.480469 C 629.296875 251.707031 638.699219 248.289062 646.730469 251.621094 C 651.003906 253.414062 655.53125 254.269531 660.230469 254.269531 C 669.800781 254.269531 678.773438 250.511719 685.4375 243.675781 C 692.1875 236.839844 695.777344 227.867188 695.605469 218.296875 C 695.351562 199.496094 679.796875 183.773438 661 183.347656 C 655.957031 183.261719 651.171875 184.117188 646.644531 185.996094 C 638.613281 189.328125 629.296875 185.824219 625.367188 178.136719 L 624.429688 176.253906 L 624.429688 90.125 C 624.429688 90.125 538.296875 90.125 538.296875 90.125 L 536.417969 89.183594 C 528.726562 85.253906 525.222656 75.941406 528.554688 67.90625 C 530.351562 63.636719 531.203125 59.105469 531.203125 54.40625 C 531.203125 44.835938 527.445312 35.863281 520.609375 29.199219 C 513.773438 22.449219 504.800781 18.859375 495.230469 19.03125 C 476.433594 19.289062 460.710938 34.839844 460.28125 53.636719 C 460.195312 58.59375 461.050781 63.464844 462.929688 67.992188 C 466.265625 76.023438 462.761719 85.339844 455.070312 89.269531 L 453.191406 90.210938 L 367.058594 90.210938 C 367.058594 90.210938 367.058594 347.578125 367.058594 347.578125 L 445.757812 347.578125 Z M 18.175781 456.695312 C 28.257812 446.441406 41.757812 440.800781 56.113281 440.800781 C 62.265625 440.800781 68.246094 441.828125 73.886719 443.878906 L 73.886719 347.578125 C 73.886719 347.578125 172.410156 347.578125 172.410156 347.578125 C 177.960938 347.578125 183.089844 350.3125 186.164062 354.925781 C 189.242188 359.542969 189.839844 365.4375 187.703125 370.5625 C 185.910156 374.835938 185.054688 379.367188 185.054688 384.066406 C 185.054688 393.636719 188.8125 402.609375 195.648438 409.273438 C 202.484375 416.023438 211.457031 419.613281 221.027344 419.441406 C 239.828125 419.183594 255.550781 403.632812 255.976562 384.917969 C 256.0625 379.878906 255.207031 375.09375 253.328125 370.480469 C 251.191406 365.265625 251.789062 359.457031 254.867188 354.84375 C 257.941406 350.226562 263.070312 347.492188 268.621094 347.492188 L 367.144531 347.492188 C 367.144531 347.492188 367.144531 446.015625 367.144531 446.015625 C 367.144531 451.570312 364.410156 456.695312 359.796875 459.773438 C 355.179688 462.847656 349.285156 463.445312 344.160156 461.308594 C 339.886719 459.515625 335.273438 458.660156 330.65625 458.660156 C 321.085938 458.660156 312.117188 462.421875 305.449219 469.257812 C 298.785156 476.09375 295.113281 485.066406 295.28125 494.636719 C 295.539062 513.433594 311.089844 529.15625 329.804688 529.582031 C 334.84375 529.667969 339.628906 528.8125 344.160156 526.933594 C 349.285156 524.796875 355.179688 525.394531 359.796875 528.472656 C 364.410156 531.546875 367.144531 536.675781 367.144531 542.230469 L 367.144531 640.75 C 367.144531 640.75 270.84375 640.75 270.84375 640.75 C 272.980469 646.816406 274.007812 653.3125 273.921875 659.890625 C 273.578125 673.734375 267.9375 686.722656 258.113281 696.464844 C 248.199219 706.203125 235.210938 711.757812 221.371094 711.929688 C 207.015625 712.101562 193.429688 706.71875 183.175781 696.546875 C 172.921875 686.464844 167.28125 672.964844 167.28125 658.523438 C 167.28125 652.371094 168.308594 646.390625 170.359375 640.75 L 74.058594 640.75 C 74.058594 640.75 74.058594 544.449219 74.058594 544.449219 C 67.992188 546.585938 61.582031 547.613281 54.917969 547.527344 C 41.074219 547.183594 28.085938 541.546875 18.34375 531.71875 C 8.519531 521.808594 3.050781 508.820312 2.878906 494.976562 C 2.878906 494.71875 2.878906 494.464844 2.878906 494.207031 C 2.878906 480.109375 8.347656 466.777344 18.261719 456.78125 Z M 178.046875 622.808594 L 179.925781 623.746094 C 187.703125 627.675781 191.121094 636.992188 187.789062 645.023438 C 185.996094 649.296875 185.140625 653.910156 185.140625 658.523438 C 185.140625 668.09375 188.898438 677.066406 195.734375 683.730469 C 202.570312 690.480469 211.542969 694.070312 221.113281 693.898438 C 239.914062 693.644531 255.632812 678.089844 256.0625 659.378906 C 256.148438 654.335938 255.292969 649.550781 253.414062 645.023438 C 250.082031 636.992188 253.5 627.675781 261.273438 623.746094 L 263.152344 622.808594 L 349.285156 622.808594 C 349.285156 622.808594 349.285156 544.195312 349.285156 544.195312 C 342.960938 546.585938 336.210938 547.699219 329.375 547.527344 C 315.535156 547.183594 302.546875 541.546875 292.804688 531.71875 C 283.0625 521.808594 277.507812 508.820312 277.339844 494.976562 C 277.167969 480.535156 282.550781 467.035156 292.71875 456.78125 C 302.800781 446.527344 316.300781 440.886719 330.742188 440.886719 C 337.152344 440.886719 343.390625 442 349.371094 444.21875 L 349.371094 365.609375 C 349.371094 365.609375 270.757812 365.609375 270.757812 365.609375 C 273.152344 371.933594 274.261719 378.683594 274.089844 385.519531 C 273.75 399.359375 268.109375 412.347656 258.285156 422.089844 C 248.371094 431.917969 235.382812 437.386719 221.539062 437.554688 C 207.1875 437.726562 193.597656 432.257812 183.34375 422.175781 C 173.09375 412.09375 167.453125 398.589844 167.453125 384.152344 C 167.453125 377.742188 168.5625 371.503906 170.785156 365.523438 L 92.171875 365.523438 C 92.171875 365.523438 92.171875 451.65625 92.171875 451.65625 L 91.234375 453.535156 C 87.300781 461.308594 77.988281 464.726562 69.957031 461.394531 C 65.683594 459.601562 61.15625 458.746094 56.457031 458.746094 C 46.886719 458.746094 37.914062 462.507812 31.25 469.34375 C 24.496094 476.179688 20.910156 485.148438 21.078125 494.71875 C 21.335938 513.519531 36.886719 529.242188 55.601562 529.667969 C 60.640625 529.753906 65.425781 528.898438 69.957031 527.019531 C 77.988281 523.6875 87.300781 527.105469 91.234375 534.882812 L 92.171875 536.761719 L 92.171875 622.890625 C 92.171875 622.890625 178.304688 622.890625 178.304688 622.890625 Z M 450.371094 476.179688 C 464.214844 472.332031 478.738281 474.128906 491.214844 481.304688 C 496.769531 484.464844 501.640625 488.566406 505.742188 493.4375 L 553.847656 409.699219 L 637.585938 457.808594 C 638.699219 451.140625 641.089844 444.734375 644.59375 438.835938 C 651.769531 427.046875 663.136719 418.585938 676.550781 414.996094 C 689.964844 411.410156 704.066406 413.203125 716.113281 419.867188 C 728.675781 426.875 737.730469 438.324219 741.578125 452.253906 C 745.421875 466.09375 743.628906 480.621094 736.449219 493.097656 C 733.203125 498.652344 729.1875 503.523438 724.230469 507.621094 L 807.96875 555.730469 L 759.863281 639.46875 C 766.527344 640.578125 772.9375 642.972656 778.832031 646.476562 C 790.625 653.652344 799.082031 665.019531 802.671875 678.433594 C 806.261719 691.847656 804.46875 705.949219 797.800781 717.996094 C 790.796875 730.558594 779.34375 739.613281 765.417969 743.460938 C 751.574219 747.304688 737.046875 745.511719 724.574219 738.332031 C 719.019531 735.171875 714.148438 731.070312 710.046875 726.113281 L 661.941406 809.851562 L 578.457031 761.917969 C 577.261719 768.324219 574.953125 774.390625 571.535156 780.03125 C 564.359375 791.824219 552.992188 800.28125 539.578125 803.871094 C 526.164062 807.460938 512.0625 805.664062 500.015625 799 C 487.453125 791.992188 478.398438 780.542969 474.550781 766.617188 C 470.707031 752.773438 472.5 738.246094 479.679688 725.773438 C 482.753906 720.472656 486.601562 715.773438 491.214844 711.84375 L 407.730469 663.90625 L 455.839844 580.167969 C 449.175781 579.058594 442.765625 576.664062 436.957031 573.160156 C 425.164062 565.984375 416.703125 554.621094 413.113281 541.203125 C 409.527344 527.789062 411.320312 513.691406 417.984375 501.640625 C 418.070312 501.386719 418.242188 501.214844 418.328125 500.957031 C 425.335938 488.738281 436.699219 479.9375 450.285156 476.179688 Z M 506.9375 700.222656 L 508.132812 702.015625 C 512.917969 709.28125 511.296875 719.019531 504.375 724.40625 C 500.699219 727.222656 497.625 730.726562 495.316406 734.828125 C 490.53125 743.117188 489.335938 752.773438 491.898438 762 C 494.460938 771.230469 500.441406 778.835938 508.816406 783.449219 C 525.222656 792.59375 546.585938 786.953125 556.324219 770.886719 C 558.890625 766.617188 560.511719 761.917969 561.195312 757.046875 C 562.308594 748.414062 569.996094 742.09375 578.628906 742.519531 L 580.765625 742.519531 C 580.765625 742.605469 655.445312 785.5 655.445312 785.5 L 695.605469 715.601562 C 698.339844 710.816406 703.296875 707.65625 708.851562 707.316406 C 714.40625 706.972656 719.789062 709.367188 723.207031 713.808594 C 726.027344 717.484375 729.527344 720.558594 733.628906 722.867188 C 741.917969 727.652344 751.574219 728.847656 760.71875 726.285156 C 769.945312 723.722656 777.550781 717.738281 782.25 709.367188 C 791.394531 692.960938 785.753906 671.597656 769.691406 661.855469 C 765.417969 659.292969 760.71875 657.667969 755.847656 656.984375 C 750.292969 656.300781 745.507812 652.882812 743.03125 647.84375 C 740.550781 642.886719 740.722656 637.078125 743.542969 632.207031 L 783.703125 562.308594 L 713.808594 522.148438 C 709.023438 519.414062 705.945312 514.457031 705.519531 508.90625 C 705.175781 503.351562 707.570312 497.96875 712.011719 494.550781 C 715.6875 491.730469 718.761719 488.226562 721.070312 484.125 C 725.855469 475.835938 727.050781 466.179688 724.488281 456.953125 C 721.925781 447.722656 715.941406 440.117188 707.570312 435.417969 C 691.164062 426.277344 669.800781 431.917969 660.058594 447.980469 C 657.496094 452.253906 655.871094 456.953125 655.1875 461.824219 C 654.503906 467.375 651.085938 472.160156 646.046875 474.640625 C 641.089844 477.117188 635.28125 476.945312 630.410156 474.128906 L 560.511719 433.96875 L 520.351562 503.863281 C 517.617188 508.648438 512.664062 511.808594 507.109375 512.152344 C 501.554688 512.492188 496.171875 510.101562 492.753906 505.65625 C 489.933594 501.984375 486.429688 498.90625 482.328125 496.601562 C 474.039062 491.816406 464.382812 490.617188 455.15625 493.183594 C 445.925781 495.746094 438.324219 501.726562 433.707031 510.101562 C 424.566406 526.507812 430.203125 547.867188 446.269531 557.609375 C 450.542969 560.171875 455.242188 561.796875 460.113281 562.480469 C 465.664062 563.164062 470.449219 566.582031 472.929688 571.625 C 475.40625 576.578125 475.234375 582.390625 472.417969 587.261719 L 432.253906 657.15625 L 506.9375 700.050781 Z M 506.9375 700.222656 " fill-opacity="1" fill-rule="nonzero"/></g><g clip-path="url(#54b0070dbc)"><path fill="#1f2a3c" d="M 606.707031 563.648438 C 603.152344 563.648438 599.605469 563.769531 596.148438 564.71875 C 594.652344 565.113281 593.183594 565.582031 591.742188 566.128906 C 590.296875 566.679688 588.886719 567.300781 587.507812 568 C 586.132812 568.695312 584.792969 569.464844 583.5 570.304688 C 582.203125 571.144531 580.953125 572.050781 579.753906 573.023438 C 578.554688 573.996094 577.410156 575.027344 576.320312 576.121094 C 575.230469 577.214844 574.199219 578.363281 573.230469 579.566406 C 572.265625 580.769531 571.363281 582.023438 570.527344 583.320312 C 569.691406 584.621094 568.929688 585.960938 568.234375 587.339844 C 567.542969 588.71875 566.925781 590.132812 566.382812 591.578125 C 565.839844 593.023438 565.371094 594.496094 564.984375 595.988281 C 564.597656 597.484375 564.292969 598.996094 564.066406 600.523438 C 563.839844 602.050781 563.695312 603.585938 563.632812 605.128906 C 563.570312 606.671875 563.585938 608.214844 563.6875 609.753906 C 563.789062 611.296875 563.96875 612.828125 564.234375 614.347656 C 564.496094 615.871094 564.839844 617.375 565.261719 618.859375 C 565.683594 620.34375 566.183594 621.804688 566.761719 623.234375 C 569.585938 630.355469 574.445312 635.964844 579.292969 641.652344 C 583.125 646.136719 585.621094 651.210938 584.824219 657.261719 C 584.132812 662.496094 584.539062 667.714844 584.441406 672.9375 C 584.394531 675.53125 584.765625 678.582031 587.382812 679.402344 C 590.347656 680.335938 590.886719 682.5 591.898438 684.679688 C 592.378906 685.695312 592.972656 686.640625 593.683594 687.507812 C 601.675781 697.386719 616.648438 694.890625 621.335938 682.921875 C 621.683594 682.035156 621.507812 680.699219 622.769531 680.445312 C 627.800781 679.414062 628.890625 675.898438 628.667969 671.433594 C 628.421875 666.496094 628.632812 661.566406 628.316406 656.609375 C 627.902344 650.175781 630.722656 644.675781 635.222656 640.0625 C 644.386719 630.664062 649.476562 619.761719 649.605469 606.269531 C 649.796875 586.230469 631.816406 562.65625 606.707031 563.648438 Z M 616.363281 682.015625 C 614.261719 685.886719 611.199219 688.265625 606.671875 688.496094 C 601.882812 688.738281 598.492188 686.519531 596.125 682.515625 C 595.289062 681.09375 595.171875 680.144531 597.390625 680.246094 C 600.367188 680.375 603.355469 680.277344 606.339844 680.277344 C 609.320312 680.277344 612.308594 680.324219 615.292969 680.277344 C 616.824219 680.214844 617.097656 680.679688 616.375 682.015625 Z M 621.230469 675.605469 C 616.285156 675.523438 611.332031 675.605469 606.382812 675.605469 C 601.617188 675.605469 596.855469 675.488281 592.097656 675.648438 C 589.441406 675.734375 589.414062 674.285156 589.285156 672.304688 C 589.148438 670.132812 590.117188 669.917969 591.898438 669.957031 C 596.726562 670.058594 601.609375 669.996094 606.460938 669.996094 C 611.414062 669.996094 616.363281 670.054688 621.308594 669.957031 C 623.03125 669.925781 623.875 670.261719 623.703125 672.21875 C 623.585938 673.933594 623.859375 675.648438 621.238281 675.605469 Z M 621.707031 665.316406 C 611.613281 665.199219 601.523438 665.273438 591.425781 665.316406 C 589.191406 665.316406 589.371094 663.707031 589.335938 662.320312 C 589.285156 660.539062 589.722656 659.742188 591.605469 659.792969 C 596.554688 659.921875 601.511719 659.835938 606.460938 659.835938 C 611.507812 659.835938 616.5625 659.957031 621.605469 659.777344 C 623.824219 659.695312 623.75 660.847656 623.679688 662.34375 C 623.585938 663.691406 624.320312 665.34375 621.71875 665.316406 Z M 600.40625 628.273438 C 600.074219 626.273438 600.363281 625.945312 602.285156 625.921875 C 603.773438 625.921875 611.332031 625.230469 612.4375 626.34375 C 613.289062 627.199219 612.121094 630.097656 611.847656 632.082031 C 610.839844 639.273438 608.886719 646.316406 608.703125 653.644531 C 608.671875 655.046875 607.351562 655.066406 605.957031 655.027344 C 605.226562 655.003906 603.8125 655.003906 603.871094 653.703125 C 604.328125 645.003906 601.828125 636.710938 600.417969 628.273438 Z M 644.300781 607 C 644.644531 617.609375 640.839844 626.683594 633.640625 634.355469 C 629.183594 639.113281 625.289062 644.117188 623.816406 650.683594 C 623.503906 652.066406 624.472656 654.042969 622.902344 654.734375 C 621.648438 655.269531 619.964844 654.898438 618.46875 654.90625 C 613.007812 654.90625 612.628906 654.492188 613.640625 649.105469 C 615.785156 637.757812 617.96875 626.417969 620.074219 615.0625 C 620.308594 613.8125 620.804688 612.476562 620.074219 611.226562 C 619.492188 610.253906 618.46875 610.4375 617.542969 610.464844 C 616.308594 610.496094 615.710938 611.269531 615.480469 612.375 C 614.914062 614.632812 614.464844 616.914062 614.132812 619.21875 C 613.972656 620.753906 613.332031 621.042969 611.988281 621.019531 C 608.242188 620.960938 604.5 620.960938 600.753906 621.019531 C 599.484375 621.019531 598.9375 620.667969 598.792969 619.332031 C 598.585938 617.484375 598.089844 615.679688 597.761719 613.84375 C 597.433594 612.007812 596.972656 610.136719 594.542969 610.519531 C 592.113281 610.898438 592.429688 612.820312 592.742188 614.5 C 594.300781 622.917969 596.023438 631.320312 597.472656 639.761719 C 598.207031 644.054688 599.6875 648.285156 598.914062 652.753906 C 598.867188 653.027344 598.980469 653.367188 598.855469 653.585938 C 597.878906 655.308594 595.75 655.09375 593.121094 655.242188 C 592.199219 655.292969 590.046875 655.382812 589.84375 653.484375 C 589.113281 646.71875 585.886719 641.109375 581.191406 636.320312 C 572.625 627.570312 568.285156 617.167969 568.550781 604.8125 C 568.910156 587.867188 583.949219 571.324219 600.679688 568.800781 C 623.894531 565.320312 641.242188 582.699219 644.273438 601.398438 C 644.566406 603.21875 644.3125 605.117188 644.3125 607 Z M 644.300781 607 " fill-opacity="1" fill-rule="nonzero"/></g><g clip-path="url(#5af881a037)"><path fill="#1f2a3c" d="M 606.671875 555.929688 C 608.324219 555.847656 609.046875 554.75 609.019531 553.074219 C 608.976562 550.1875 609.019531 547.296875 609.019531 544.40625 C 609.019531 541.425781 608.992188 538.441406 609.019531 535.460938 C 609.019531 533.742188 608.097656 532.691406 606.542969 532.703125 C 604.988281 532.710938 604.011719 533.773438 604.003906 535.460938 C 604.003906 541.328125 604.003906 547.199219 604.003906 553.074219 C 604.003906 554.808594 604.808594 556.019531 606.671875 555.929688 Z M 606.671875 555.929688 " fill-opacity="1" fill-rule="nonzero"/></g><path fill="#1f2a3c" d="M 576.660156 565.550781 C 578.089844 564.414062 578.449219 563.09375 577.195312 561.457031 C 573.8125 557.011719 570.480469 552.507812 567.148438 548.015625 C 566.59375 547.199219 565.832031 546.699219 564.859375 546.519531 C 563.96875 546.789062 563.054688 547.054688 562.636719 548.027344 C 562.101562 549.265625 562.417969 550.367188 563.210938 551.410156 C 566.535156 555.792969 569.851562 560.1875 573.164062 564.589844 C 574.070312 565.796875 575.140625 566.753906 576.660156 565.550781 Z M 576.660156 565.550781 " fill-opacity="1" fill-rule="nonzero"/><path fill="#1f2a3c" d="M 648.761719 547.410156 C 647.335938 546.808594 646.417969 547.582031 645.664062 548.554688 C 642.238281 552.957031 638.859375 557.394531 635.472656 561.828125 C 634.398438 563.21875 634.398438 564.703125 635.8125 565.753906 C 637.230469 566.808594 638.601562 566.257812 639.675781 564.886719 C 642.976562 560.507812 646.300781 556.144531 649.582031 551.753906 C 649.960938 551.183594 650.296875 550.582031 650.582031 549.957031 C 650.210938 548.792969 649.867188 547.867188 648.761719 547.410156 Z M 648.761719 547.410156 " fill-opacity="1" fill-rule="nonzero"/><g clip-path="url(#e32e1a820c)"><path fill="#1f2a3c" d="M 556.535156 584.910156 C 552.035156 583.453125 547.511719 582.050781 543.023438 580.574219 C 541.414062 580.039062 540.128906 580.449219 539.566406 581.953125 C 538.929688 583.671875 539.890625 584.792969 541.550781 585.335938 C 545.257812 586.535156 548.964844 587.746094 552.675781 588.929688 C 553.824219 589.292969 555 589.566406 555.78125 589.78125 C 557.5 589.78125 558.320312 589.203125 558.507812 587.867188 C 558.722656 586.304688 557.929688 585.367188 556.535156 584.910156 Z M 556.535156 584.910156 " fill-opacity="1" fill-rule="nonzero"/></g><g clip-path="url(#e52ae1bf34)"><path fill="#1f2a3c" d="M 657.414062 589.945312 C 661.914062 588.492188 666.449219 587.136719 670.964844 585.742188 C 672.226562 585.355469 673.109375 584.667969 673.109375 582.9375 C 672.945312 581.183594 671.808594 580.253906 669.890625 580.832031 C 665.171875 582.210938 660.492188 583.734375 655.804688 585.210938 C 654.160156 585.746094 653.558594 586.976562 654.042969 588.484375 C 654.523438 589.988281 655.769531 590.484375 657.414062 589.945312 Z M 657.414062 589.945312 " fill-opacity="1" fill-rule="nonzero"/></g><g clip-path="url(#349fc6cc47)"><path fill="#1f2a3c" d="M 671.566406 620.050781 C 667.074219 618.917969 662.570312 617.839844 658.070312 616.742188 C 656.59375 616.375 655.71875 617.117188 655.289062 618.410156 C 654.804688 619.871094 655.367188 621.171875 656.78125 621.550781 C 661.433594 622.808594 666.136719 623.871094 670.996094 625.042969 C 671.289062 625.085938 671.574219 625.070312 671.859375 625 C 672.144531 624.925781 672.40625 624.804688 672.644531 624.632812 C 672.882812 624.460938 673.078125 624.25 673.234375 624 C 673.390625 623.75 673.492188 623.484375 673.542969 623.191406 C 673.929688 621.550781 673.160156 620.453125 671.566406 620.050781 Z M 671.566406 620.050781 " fill-opacity="1" fill-rule="nonzero"/></g><g clip-path="url(#41a8534a36)"><path fill="#1f2a3c" d="M 554.542969 616.472656 C 550.253906 617.648438 545.488281 618.875 540.789062 620.28125 C 539.640625 620.625 539.144531 621.808594 539.503906 623.042969 C 539.863281 624.277344 540.726562 625.238281 541.917969 624.953125 C 546.691406 623.828125 551.433594 622.554688 556.148438 621.199219 C 557.46875 620.816406 557.808594 619.589844 557.457031 618.230469 C 557.101562 616.875 556.265625 616.429688 554.542969 616.472656 Z M 554.542969 616.472656 " fill-opacity="1" fill-rule="nonzero"/></g></svg>